<svg width="80" height="80" viewBox="0 0 80 80" fill="none" xmlns="http://www.w3.org/2000/svg">
<path fill-rule="evenodd" clip-rule="evenodd" d="M17.8723 54.468C17.8723 42.7173 27.3982 33.1914 39.1489 33.1914C50.8997 33.1914 60.4255 42.7173 60.4255 54.468C60.4255 66.2187 50.8997 75.7446 39.1489 75.7446C27.3982 75.7446 17.8723 66.2187 17.8723 54.468ZM39.1489 37.4467C29.7483 37.4467 22.1276 45.0674 22.1276 54.468C22.1276 63.8686 29.7483 71.4893 39.1489 71.4893C48.5495 71.4893 56.1702 63.8686 56.1702 54.468C56.1702 45.0674 48.5495 37.4467 39.1489 37.4467Z" fill="white" stroke="black"/>
<path fill-rule="evenodd" clip-rule="evenodd" d="M25.5319 19.5747C37.2827 19.5747 46.8085 29.1006 46.8085 40.8513C46.8085 52.602 37.2827 62.1279 25.5319 62.1279C13.7812 62.1279 4.25534 52.602 4.25534 40.8513C4.25534 29.1006 13.7812 19.5747 25.5319 19.5747ZM42.5532 40.8513C42.5532 31.4507 34.9325 23.83 25.5319 23.83C16.1313 23.83 8.51066 31.4507 8.51066 40.8513C8.51066 50.2519 16.1313 57.8726 25.5319 57.8726C34.9325 57.8726 42.5532 50.2519 42.5532 40.8513Z" fill="white" stroke="black"/>
<path fill-rule="evenodd" clip-rule="evenodd" d="M54.4681 19.5747C66.2188 19.5747 75.7447 29.1006 75.7447 40.8513C75.7447 52.602 66.2188 62.1279 54.4681 62.1279C42.7174 62.1279 33.1915 52.602 33.1915 40.8513C33.1915 29.1006 42.7174 19.5747 54.4681 19.5747ZM71.4894 40.8513C71.4894 31.4507 63.8687 23.83 54.4681 23.83C45.0675 23.83 37.4468 31.4507 37.4468 40.8513C37.4468 50.2519 45.0675 57.8726 54.4681 57.8726C63.8687 57.8726 71.4894 50.2519 71.4894 40.8513Z" fill="white" stroke="black"/>
<path fill-rule="evenodd" clip-rule="evenodd" d="M17.8723 25.532C17.8723 13.7812 27.3982 4.25537 39.1489 4.25537C50.8997 4.25537 60.4255 13.7812 60.4255 25.532C60.4255 37.2827 50.8997 46.8086 39.1489 46.8086C27.3982 46.8086 17.8723 37.2827 17.8723 25.532ZM39.1489 8.51069C29.7483 8.51069 22.1276 16.1314 22.1276 25.532C22.1276 34.9326 29.7483 42.5532 39.1489 42.5532C48.5495 42.5532 56.1702 34.9326 56.1702 25.532C56.1702 16.1314 48.5495 8.51069 39.1489 8.51069Z" fill="white" stroke="black"/>
</svg>
